<svg width="44" height="43" viewBox="0 0 44 43" fill="none" xmlns="http://www.w3.org/2000/svg">
<path d="M22 2.6875C32.6133 2.6875 41.25 11.1279 41.25 21.5C41.25 31.8721 32.6133 40.3125 22 40.3125C11.3867 40.3125 2.75 31.8721 2.75 21.5C2.75 11.1279 11.3867 2.6875 22 2.6875ZM22 0C9.85059 0 0 9.62671 0 21.5C0 33.3733 9.85059 43 22 43C34.1494 43 44 33.3733 44 21.5C44 9.62671 34.1494 0 22 0ZM34.2649 28.6886L34.1413 28.3211C33.8513 27.4761 32.8952 26.5942 32.0144 26.358L28.7622 25.4893C27.8814 25.2557 26.6246 25.5706 25.9774 26.2031L24.8011 27.3527C20.5257 26.2215 17.1715 22.9435 16.0167 18.7653L17.193 17.6157C17.8375 16.9858 18.1598 15.7576 17.9208 14.8941L17.0344 11.7158C16.7955 10.855 15.8877 9.92065 15.023 9.63721L14.6523 9.51644C13.7849 9.23299 12.5469 9.51904 11.9023 10.1516L10.1406 11.8733C9.82644 12.1777 9.625 13.0517 9.625 13.0544C9.56588 18.5186 11.7574 23.7808 15.7105 27.6466C19.6529 31.4994 25.0186 33.6385 30.5911 33.5911C30.6206 33.5911 31.5418 33.3996 31.856 33.0924L33.6177 31.3708C34.2622 30.7435 34.5522 29.5336 34.2649 28.6886Z" fill="white"/>
</svg>
