<svg width="47" height="46" viewBox="0 0 47 46" fill="none" xmlns="http://www.w3.org/2000/svg">
<circle cx="24.64" cy="23.2708" r="17.7953" fill="white"/>
<path d="M23.2706 1.73438C11.4054 1.73438 1.78711 11.0697 1.78711 22.586C1.78711 34.1023 11.4054 43.4377 23.2706 43.4377C35.1359 43.4377 44.7542 34.1023 44.7542 22.586C44.7542 11.0697 35.1359 1.73438 23.2706 1.73438ZM30.3156 23.7479C29.4528 23.7339 28.6639 23.7583 27.6609 23.7163C27.498 23.709 24.8856 23.747 24.8935 23.7931C24.8838 25.0277 24.8107 26.1185 24.827 27.2587C24.8368 27.9232 25.0378 33.9348 24.9452 36.1523L19.7684 36.1984C19.747 34.3101 19.8419 32.3682 19.7577 29.8778C19.7405 29.366 19.7233 23.9778 19.6618 23.6941C19.6618 23.6941 17.3738 23.7099 16.3043 23.7163C16.3043 23.7163 16.2899 21.7278 16.2899 21.0551C16.2899 20.3943 16.2899 19.7343 16.2899 19.0734C16.2899 19.0734 18.9604 18.9298 19.727 18.8652C19.727 18.8652 19.8052 16.3427 19.9113 15.5256C20.0337 14.5923 20.0458 13.6491 20.6103 12.8233C21.645 11.3119 22.6661 9.97973 24.5682 9.57814C25.2878 9.42546 30.0327 8.5202 30.2086 9.2651L30.1006 13.7498C28.8105 13.7498 27.2644 13.6229 25.9477 14.572C25.2147 15.1014 25.0122 15.5423 24.9382 16.4132C24.894 16.9196 24.8838 18.9691 24.8838 18.9691C25.5791 19.0653 26.6081 19.0228 27.3556 18.9691C28.1999 18.9081 30.3673 19.1254 30.3673 19.1254C30.3664 20.4819 30.3105 23.6137 30.3156 23.7479Z" fill="#3A5897"/>
</svg>
