<svg width="48" height="48" viewBox="0 0 48 48" fill="none" xmlns="http://www.w3.org/2000/svg">
<path d="M24 46.5C36.4264 46.5 46.5 36.4264 46.5 24C46.5 11.5736 36.4264 1.5 24 1.5C11.5736 1.5 1.5 11.5736 1.5 24C1.5 36.4264 11.5736 46.5 24 46.5Z" fill="#D5E2EB"/>
<path d="M37.125 31.9313V33.4313C37.125 33.8438 36.7875 34.1813 36.375 34.1813H11.625C11.2125 34.1813 10.875 33.8438 10.875 33.4313V31.9313C10.875 32.3438 11.2125 32.6813 11.625 32.6813H36.375C36.7875 32.6813 37.125 32.3438 37.125 31.9313Z" fill="#3E5063"/>
<path d="M36.5625 13.8375L27.9938 22.4062L27.5437 22.8562L26.925 23.475L26.8688 23.5312L25.6312 24.7687C24.7312 25.6687 23.2688 25.6687 22.3688 24.7687L21.1312 23.5312L21.075 23.475L20.4562 22.8562L20.0062 22.4062L11.4375 13.8375C11.4938 13.8187 11.55 13.8187 11.625 13.8187H36.375C36.4312 13.8187 36.5063 13.8187 36.5625 13.8375Z" fill="#3E5063"/>
<path d="M37.125 14.775V32.1188C37.125 32.5313 36.7875 32.8688 36.375 32.8688H11.625C11.2125 32.8688 10.875 32.5313 10.875 32.1188V14.775L11.4375 15.3375L19.2562 23.1563L19.575 23.475L12.1312 30.9188C11.9062 31.1437 11.9062 31.5 12.1312 31.725C12.2437 31.8375 12.3938 31.8938 12.525 31.8938C12.675 31.8938 12.8063 31.8375 12.9188 31.725L20.3625 24.2813L21.6 25.5188C22.2562 26.175 23.1188 26.5125 23.9813 26.5125C24.8438 26.5125 25.7063 26.1938 26.3625 25.5188L27.6 24.2813L35.0437 31.725C35.1562 31.8375 35.3062 31.8938 35.4375 31.8938C35.5875 31.8938 35.7188 31.8375 35.8313 31.725C36.0563 31.5 36.0563 31.1437 35.8313 30.9188L28.3875 23.475L28.7063 23.1563L36.5625 15.3375L37.125 14.775Z" fill="#4B687F"/>
</svg>
