<svg width="44" height="45" viewBox="0 0 44 45" fill="none" xmlns="http://www.w3.org/2000/svg">
<g clip-path="url(#clip0_216_527)">
<path d="M22.0285 44.3984C33.7465 44.3984 43.2459 34.5927 43.2459 22.4966C43.2459 10.4005 33.7465 0.594727 22.0285 0.594727C10.3104 0.594727 0.811035 10.4005 0.811035 22.4966C0.811035 34.5927 10.3104 44.3984 22.0285 44.3984Z" fill="#007AB9"/>
<path d="M34.7058 24.2589V33.2886H29.6342V24.8641C29.6342 22.7488 28.902 21.3042 27.0657 21.3042C25.6644 21.3042 24.8319 22.2768 24.4643 23.2185C24.3308 23.555 24.2964 24.0224 24.2964 24.4944V33.2882H19.2244C19.2244 33.2882 19.2925 19.0199 19.2244 17.5429H24.2968V19.7742C24.2866 19.7917 24.2722 19.8089 24.2631 19.8257H24.2968V19.7742C24.9708 18.7036 26.1727 17.1732 28.8676 17.1732C32.2042 17.1732 34.7058 19.4236 34.7058 24.2589ZM13.9188 9.95312C12.1839 9.95312 11.0488 11.1287 11.0488 12.6732C11.0488 14.1849 12.151 15.3944 13.8522 15.3944H13.8851C15.654 15.3944 16.7539 14.1849 16.7539 12.6732C16.7202 11.1287 15.654 9.95312 13.9188 9.95312ZM11.3503 33.2886H16.4203V17.5429H11.3503V33.2886Z" fill="#F1F2F2"/>
</g>
<defs>
<clipPath id="clip0_216_527">
<rect width="42.4349" height="43.8037" fill="white" transform="translate(0.811035 0.595703)"/>
</clipPath>
</defs>
</svg>
