<svg width="59" height="57" viewBox="0 0 59 57" fill="none" xmlns="http://www.w3.org/2000/svg">
<path d="M29.2027 2.17334C14.3355 2.17334 2.28376 13.8706 2.28376 28.3005C2.28376 42.7305 14.3355 54.4277 29.2027 54.4277C44.0699 54.4277 56.1216 42.7305 56.1216 28.3005C56.1216 13.8706 44.0699 2.17334 29.2027 2.17334ZM38.03 29.7563C36.9489 29.7388 35.9604 29.7693 34.7037 29.7167C34.4996 29.7076 31.2263 29.7552 31.2362 29.8129C31.2239 31.3599 31.1324 32.7267 31.1528 34.1554C31.165 34.988 31.417 42.5205 31.3009 45.299L24.8144 45.3568C24.7875 42.9908 24.9065 40.5575 24.8009 37.4371C24.7794 36.7958 24.7578 30.0444 24.6808 29.6889C24.6808 29.6889 21.814 29.7088 20.4739 29.7167C20.4739 29.7167 20.4558 27.2251 20.4558 26.3823C20.4558 25.5542 20.4558 24.7273 20.4558 23.8992C20.4558 23.8992 23.802 23.7192 24.7625 23.6383C24.7625 23.6383 24.8604 20.4776 24.9934 19.4537C25.1468 18.2843 25.1619 17.1025 25.8693 16.0678C27.1657 14.174 28.4451 12.5048 30.8285 12.0016C31.7301 11.8103 37.6755 10.676 37.8959 11.6093L37.7606 17.2287C36.1441 17.2287 34.2068 17.0697 32.557 18.2589C31.6386 18.9222 31.3849 19.4747 31.2922 20.5659C31.2368 21.2004 31.2239 23.7684 31.2239 23.7684C32.0952 23.889 33.3846 23.8358 34.3211 23.7684C35.379 23.692 38.0948 23.9643 38.0948 23.9643C38.0936 25.664 38.0236 29.5882 38.03 29.7563Z" fill="#3A5897"/>
</svg>
