<svg width="59" height="57" viewBox="0 0 59 57" fill="none" xmlns="http://www.w3.org/2000/svg">
<path d="M4.55598 52.1794L15.4903 49.2609C19.4085 51.6487 24.1467 53.0638 29.1583 53.0638C43.2818 53.0638 54.6717 42.0088 54.6717 28.3007C54.6717 14.5925 43.2818 3.5376 29.1583 3.5376C15.0347 3.5376 3.64478 14.5925 3.64478 28.3007C3.64478 33.1649 5.1027 37.7637 7.56292 41.5666L4.55598 52.1794Z" fill="#25D366" stroke="white" stroke-width="3" stroke-miterlimit="10"/>
<path d="M41.8239 35.0222C40.0926 38.5598 36.9034 39.002 36.9034 39.002C34.1698 39.5326 30.7073 38.3829 27.9737 37.1448C24.0556 35.376 20.6841 32.5459 18.4062 28.9199C17.4038 27.2395 16.4926 25.2939 16.4015 23.4366C16.4015 23.4366 16.037 20.3412 19.1351 17.8649C19.4085 17.688 19.6818 17.5996 20.0463 17.5996H21.4131C21.9598 17.5996 22.5065 17.9534 22.6888 18.484L24.7845 23.4366C24.9668 23.9673 24.8756 24.4979 24.5112 24.9401L23.1444 26.3551C22.6888 26.7973 22.6888 27.4164 22.9621 27.947C23.0533 28.1239 23.2355 28.3892 23.5088 28.6546C25.149 30.7771 27.3359 32.369 29.7961 33.4303C30.1606 33.6072 30.4339 33.6956 30.7073 33.7841C31.3451 33.9609 31.8919 33.6956 32.2563 33.2534L33.3498 31.6615C33.6231 31.2193 34.1698 30.954 34.7166 31.0424L40.1837 31.8384C40.7304 31.9268 41.186 32.369 41.3683 32.8997L41.7328 34.2263C41.915 34.4031 41.915 34.7569 41.8239 35.0222Z" fill="white"/>
</svg>
