<svg width="56" height="56" viewBox="0 0 56 56" fill="none" xmlns="http://www.w3.org/2000/svg">
<g clip-path="url(#clip0_71_33)">
<path d="M0.80397 28.1584C0.80397 13.0021 13.0907 0.715332 28.247 0.715332C43.4034 0.715332 55.6901 13.0021 55.6901 28.1584C55.6901 43.3148 43.4034 55.6015 28.247 55.6015C13.0907 55.6015 0.80397 43.3148 0.80397 28.1584Z" fill="#FF0000"/>
<path d="M42.2716 21.3811C41.9349 20.0878 40.943 19.0695 39.6835 18.7238C37.4009 18.0957 28.247 18.0957 28.247 18.0957C28.247 18.0957 19.0932 18.0957 16.8105 18.7238C15.5508 19.0695 14.5589 20.0878 14.2223 21.3811C13.6107 23.7251 13.6107 28.6155 13.6107 28.6155C13.6107 28.6155 13.6107 33.5059 14.2223 35.85C14.5589 37.1433 15.5508 38.1616 16.8105 38.5074C19.0932 39.1354 28.247 39.1354 28.247 39.1354C28.247 39.1354 37.4009 39.1354 39.6835 38.5074C40.943 38.1616 41.9349 37.1433 42.2716 35.85C42.8833 33.5059 42.8833 28.6155 42.8833 28.6155C42.8833 28.6155 42.8833 23.7251 42.2716 21.3811Z" fill="white"/>
<path d="M25.5027 33.6472V24.4995L32.8209 29.0735L25.5027 33.6472Z" fill="#FF0000"/>
</g>
<defs>
<clipPath id="clip0_71_33">
<rect width="54.8861" height="54.8861" fill="white" transform="translate(0.80397 0.715332)"/>
</clipPath>
</defs>
</svg>
