<svg width="48" height="47" viewBox="0 0 48 47" fill="none" xmlns="http://www.w3.org/2000/svg">
<path d="M3.75 43.3281L12.75 40.9047C15.975 42.8875 19.875 44.0625 24 44.0625C35.625 44.0625 45 34.8828 45 23.5C45 12.1172 35.625 2.9375 24 2.9375C12.375 2.9375 3 12.1172 3 23.5C3 27.5391 4.2 31.3578 6.225 34.5156L3.75 43.3281Z" fill="#25D366" stroke="white" stroke-width="3" stroke-miterlimit="10"/>
<path d="M34.425 29.0812C33 32.0187 30.375 32.3859 30.375 32.3859C28.125 32.8266 25.275 31.8719 23.025 30.8437C19.8 29.375 17.025 27.025 15.15 24.0141C14.325 22.6187 13.575 21.0031 13.5 19.4609C13.5 19.4609 13.2 16.8906 15.75 14.8344C15.975 14.6875 16.2 14.6141 16.5 14.6141H17.625C18.075 14.6141 18.525 14.9078 18.675 15.3484L20.4 19.4609C20.55 19.9016 20.475 20.3422 20.175 20.7094L19.05 21.8844C18.675 22.2516 18.675 22.7656 18.9 23.2062C18.975 23.3531 19.125 23.5734 19.35 23.7937C20.7 25.5562 22.5 26.8781 24.525 27.7594C24.825 27.9062 25.05 27.9797 25.275 28.0531C25.8 28.2 26.25 27.9797 26.55 27.6125L27.45 26.2906C27.675 25.9234 28.125 25.7031 28.575 25.7766L33.075 26.4375C33.525 26.5109 33.9 26.8781 34.05 27.3187L34.35 28.4203C34.5 28.5672 34.5 28.8609 34.425 29.0812Z" fill="white"/>
</svg>
