<svg width="46" height="46" viewBox="0 0 46 46" fill="none" xmlns="http://www.w3.org/2000/svg">
<g clip-path="url(#clip0_216_532)">
<path d="M22.8118 45.2886C35.1531 45.2886 45.1577 35.2839 45.1577 22.9426C45.1577 10.6013 35.1531 0.59668 22.8118 0.59668C10.4704 0.59668 0.46582 10.6013 0.46582 22.9426C0.46582 35.2839 10.4704 45.2886 22.8118 45.2886Z" fill="#CB2027"/>
<path d="M24.6153 30.5193C22.9259 30.3887 22.2161 29.5509 20.8912 28.7467C20.1631 32.5672 19.2732 36.2295 16.6374 38.1427C15.8228 32.3684 17.8316 28.0313 18.7645 23.4277C17.1743 20.7509 18.9557 15.363 22.3097 16.6906C26.4377 18.323 18.7358 26.6439 23.9063 27.6831C29.3041 28.7682 31.5077 18.317 28.1601 14.9176C23.3235 10.0097 14.0817 14.8061 15.2181 21.832C15.495 23.5496 17.27 24.071 15.9272 26.4411C12.8317 25.7556 11.9083 23.3142 12.027 20.0594C12.2186 14.7316 16.8143 11.0012 21.4238 10.4849C27.2535 9.83244 32.725 12.6256 33.4803 18.1091C34.33 24.2981 30.8485 31.0005 24.6153 30.5193Z" fill="#F1F2F2"/>
</g>
<defs>
<clipPath id="clip0_216_532">
<rect width="44.6927" height="44.6927" fill="white" transform="translate(0.465332 0.595703)"/>
</clipPath>
</defs>
</svg>
