<svg width="59" height="58" viewBox="0 0 59 58" fill="none" xmlns="http://www.w3.org/2000/svg">
<ellipse cx="29.1583" cy="29.2211" rx="27.4431" ry="28.3007" fill="white"/>
<g clip-path="url(#clip0_72_2)">
<path d="M35.8507 17.229H22.4659C21.7222 17.229 20.9858 17.3711 20.2988 17.6474C19.6117 17.9236 18.9874 18.3284 18.4616 18.8388C17.9357 19.3492 17.5186 19.9551 17.234 20.6219C16.9495 21.2888 16.803 22.0035 16.803 22.7253V35.7164C16.803 37.1741 17.3996 38.5721 18.4616 39.6029C18.9875 40.1133 19.6117 40.5181 20.2988 40.7943C20.9858 41.0705 21.7222 41.2127 22.4659 41.2127H35.8507C37.3525 41.2127 38.7929 40.6336 39.8548 39.6028C40.9168 38.5721 41.5134 37.1741 41.5134 35.7164V22.7253C41.5134 22.0035 41.3669 21.2888 41.0824 20.622C40.7978 19.9551 40.3807 19.3492 39.8549 18.8388C39.329 18.3285 38.7048 17.9236 38.0177 17.6474C37.3307 17.3712 36.5943 17.229 35.8507 17.229ZM29.1583 36.7814C27.6176 36.7814 26.1115 36.338 24.8305 35.5073C23.5495 34.6765 22.5511 33.4957 21.9615 32.1142C21.3719 30.7327 21.2177 29.2125 21.5182 27.7459C21.8188 26.2793 22.5607 24.9321 23.6501 23.8747C24.7395 22.8173 26.1275 22.0973 27.6386 21.8055C29.1496 21.5138 30.7159 21.6635 32.1392 22.2358C33.5626 22.808 34.7792 23.7771 35.6352 25.0204C36.4911 26.2638 36.948 27.7255 36.948 29.2209C36.948 30.2137 36.7465 31.1969 36.355 32.1142C35.9635 33.0315 35.3897 33.8649 34.6664 34.567C33.9431 35.2691 33.0843 35.826 32.1392 36.2059C31.1942 36.5859 30.1812 36.7814 29.1583 36.7814ZM37.2727 23.2048C36.9061 23.2048 36.5478 23.0993 36.243 22.9017C35.9383 22.704 35.7007 22.4231 35.5604 22.0944C35.4201 21.7658 35.3834 21.4041 35.4549 21.0552C35.5264 20.7062 35.7029 20.3857 35.9621 20.1341C36.2213 19.8826 36.5515 19.7112 36.911 19.6418C37.2705 19.5724 37.6431 19.608 37.9818 19.7442C38.3204 19.8803 38.6098 20.1109 38.8135 20.4067C39.0171 20.7025 39.1258 21.0502 39.1258 21.406C39.1258 21.883 38.9306 22.3405 38.5831 22.6779C38.2355 23.0152 37.7642 23.2047 37.2727 23.2048Z" fill="url(#paint0_linear_72_2)"/>
<path d="M29.1583 24.3066C28.1568 24.3066 27.1779 24.5949 26.3452 25.1349C25.5125 25.6749 24.8635 26.4424 24.4803 27.3404C24.0971 28.2384 23.9968 29.2266 24.1922 30.1799C24.3875 31.1332 24.8698 32.0089 25.5779 32.6962C26.286 33.3835 27.1882 33.8515 28.1704 34.0412C29.1526 34.2308 30.1707 34.1335 31.0959 33.7615C32.0212 33.3895 32.812 32.7596 33.3683 31.9515C33.9247 31.1433 34.2217 30.1931 34.2217 29.2211C34.2217 27.9177 33.6882 26.6677 32.7386 25.7461C31.7891 24.8244 30.5012 24.3066 29.1583 24.3066Z" fill="url(#paint1_linear_72_2)"/>
<path d="M29.1583 0.92041C13.0546 0.92041 0 13.591 0 29.2211C0 44.8511 13.0546 57.5217 29.1583 57.5217C45.2619 57.5217 58.3165 44.8511 58.3165 29.2211C58.3165 13.591 45.2619 0.92041 29.1583 0.92041ZM44.3448 35.4671C44.3447 37.7198 43.4227 39.8802 41.7815 41.4731C40.1404 43.066 37.9145 43.9609 35.5936 43.961H22.7229C20.402 43.9609 18.1761 43.066 16.5349 41.4731C14.8938 39.8802 13.9717 37.7198 13.9716 35.4671V22.975C13.9717 20.7223 14.8937 18.5619 16.5349 16.969C18.1761 15.3761 20.402 14.4812 22.7229 14.4812H35.5936C37.9145 14.4813 40.1404 15.3762 41.7815 16.9691C43.4227 18.562 44.3447 20.7223 44.3448 22.975V35.4671Z" fill="url(#paint2_linear_72_2)"/>
</g>
<defs>
<linearGradient id="paint0_linear_72_2" x1="0.911194" y1="56.6371" x2="55.9762" y2="-0.0965399" gradientUnits="userSpaceOnUse">
<stop stop-color="#FFCB52"/>
<stop offset="0.318" stop-color="#FF6341"/>
<stop offset="0.658" stop-color="#CD39A2"/>
<stop offset="1" stop-color="#515BCA"/>
</linearGradient>
<linearGradient id="paint1_linear_72_2" x1="0.911186" y1="56.6374" x2="55.9762" y2="-0.0963061" gradientUnits="userSpaceOnUse">
<stop stop-color="#FFCB52"/>
<stop offset="0.318" stop-color="#FF6341"/>
<stop offset="0.658" stop-color="#CD39A2"/>
<stop offset="1" stop-color="#515BCA"/>
</linearGradient>
<linearGradient id="paint2_linear_72_2" x1="0.911195" y1="56.6373" x2="55.9762" y2="-0.0963186" gradientUnits="userSpaceOnUse">
<stop stop-color="#FFCB52"/>
<stop offset="0.318" stop-color="#FF6341"/>
<stop offset="0.658" stop-color="#CD39A2"/>
<stop offset="1" stop-color="#515BCA"/>
</linearGradient>
<clipPath id="clip0_72_2">
<rect width="58.3165" height="56.6013" fill="white" transform="translate(0 0.92041)"/>
</clipPath>
</defs>
</svg>
