<svg width="54" height="56" viewBox="0 0 54 56" fill="none" xmlns="http://www.w3.org/2000/svg">
<g clip-path="url(#clip0_71_42)">
<path d="M27.3822 55.8061C42.0649 55.8061 53.9676 43.5194 53.9676 28.363C53.9676 13.2066 42.0649 0.919922 27.3822 0.919922C12.6994 0.919922 0.796692 13.2066 0.796692 28.363C0.796692 43.5194 12.6994 55.8061 27.3822 55.8061Z" fill="#007AB9"/>
<path d="M43.2667 30.5712V41.8854H36.912V31.3295C36.912 28.679 35.9946 26.869 33.6937 26.869C31.9379 26.869 30.8948 28.0876 30.4342 29.2675C30.2669 29.6892 30.2237 30.2748 30.2237 30.8662V41.8849H23.8686C23.8686 41.8849 23.9539 24.0067 23.8686 22.156H30.2242V24.9518C30.2114 24.9738 30.1934 24.9953 30.182 25.0164H30.2242V24.9518C31.0687 23.6104 32.5748 21.6927 35.9514 21.6927C40.1323 21.6927 43.2667 24.5125 43.2667 30.5712ZM17.2206 12.646C15.0467 12.646 13.6245 14.119 13.6245 16.0542C13.6245 17.9484 15.0055 19.464 17.1371 19.464H17.1784C19.3949 19.464 20.773 17.9484 20.773 16.0542C20.7308 14.119 19.3949 12.646 17.2206 12.646ZM14.0022 41.8854H20.355V22.156H14.0022V41.8854Z" fill="#F1F2F2"/>
</g>
<defs>
<clipPath id="clip0_71_42">
<rect width="53.171" height="54.8861" fill="white" transform="translate(0.796692 0.92041)"/>
</clipPath>
</defs>
</svg>
