<svg width="60" height="59" viewBox="0 0 60 59" fill="none" xmlns="http://www.w3.org/2000/svg">
<path d="M29.9707 57.0585C45.0678 57.0585 57.3065 44.8198 57.3065 29.7226C57.3065 14.6254 45.0678 2.38672 29.9707 2.38672C14.8735 2.38672 2.6348 14.6254 2.6348 29.7226C2.6348 44.8198 14.8735 57.0585 29.9707 57.0585Z" fill="#D5E2EB"/>
<path d="M45.9166 39.3584V41.1808C45.9166 41.6819 45.5066 42.092 45.0054 42.092H14.9359C14.4348 42.092 14.0247 41.6819 14.0247 41.1808V39.3584C14.0247 39.8596 14.4348 40.2696 14.9359 40.2696H45.0054C45.5066 40.2696 45.9166 39.8596 45.9166 39.3584Z" fill="#3E5063"/>
<path d="M45.2332 17.3758L34.8228 27.7862L34.2761 28.3329L33.5243 29.0847L33.456 29.153L31.9525 30.6565C30.8591 31.7499 29.0823 31.7499 27.9888 30.6565L26.4853 29.153L26.417 29.0847L25.6653 28.3329L25.1186 27.7862L14.7081 17.3758C14.7765 17.353 14.8448 17.353 14.9359 17.353H45.0054C45.0737 17.353 45.1649 17.353 45.2332 17.3758Z" fill="#3E5063"/>
<path d="M45.9166 18.5146V39.586C45.9166 40.0872 45.5066 40.4972 45.0054 40.4972H14.9359C14.4348 40.4972 14.0247 40.0872 14.0247 39.586V18.5146L14.7081 19.198L24.2074 28.6973L24.5946 29.0845L15.551 38.1281C15.2776 38.4015 15.2776 38.8343 15.551 39.1077C15.6877 39.2443 15.8699 39.3127 16.0294 39.3127C16.2116 39.3127 16.3711 39.2443 16.5078 39.1077L25.5514 30.0641L27.0548 31.5675C27.8521 32.3648 28.9 32.7749 29.9479 32.7749C30.9958 32.7749 32.0436 32.3876 32.8409 31.5675L34.3444 30.0641L43.388 39.1077C43.5247 39.2443 43.7069 39.3127 43.8664 39.3127C44.0486 39.3127 44.2081 39.2443 44.3448 39.1077C44.6181 38.8343 44.6181 38.4015 44.3448 38.1281L35.3012 29.0845L35.6884 28.6973L45.2332 19.198L45.9166 18.5146Z" fill="#4B687F"/>
</svg>
